<svg width="200" height="82.82" viewBox="0 0 355 147" fill="none" xmlns="http://www.w3.org/2000/svg">
<path d="M114 12H20C15.5817 12 12 15.5817 12 20V127C12 131.418 15.5817 135 20 135H114C118.418 135 122 131.418 122 127V20C122 15.5817 118.418 12 114 12Z" fill="#1C110A"/>
<path d="M33.5083 27.6078C33.6363 27.6078 99.0555 26.7116 99.4396 27.0957C101.104 28.6319 102 45.0187 102 63.5819C96.6231 57.8209 87.0215 50.2676 72.811 48.2193C68.4583 47.1951 65.0017 47.5792 65.0017 47.5792C62.5693 47.8352 60.777 49.7556 61.033 52.188C61.161 54.2363 62.8253 55.7726 64.7456 56.1566C65.1297 56.1566 65.6418 56.2847 66.1539 56.2847C67.5621 56.2847 68.7143 56.4127 69.9945 56.6687C74.9874 57.949 82.2846 63.1978 78.9561 82.2731C69.7385 79.5846 62.6973 81.3769 61.161 83.6813C58.0885 88.0341 60.6489 103.909 63.3374 120.424C48.2308 120.424 34.0204 119.784 33.1243 118.375C30.5638 113.766 33.1243 27.9918 33.5083 27.6078V27.6078Z" fill="#D00000"/>
<path d="M158.098 66.269H147.451V71.8288H156.208V76.3711H147.451V86.8728H142V61.4361H158.098V66.269V66.269ZM168.6 87.1635C165.002 87.1635 161.441 84.8015 161.441 78.8421V67.9769H166.637V78.4787C166.637 81.5674 167.836 82.6212 169.835 82.6212C172.597 82.6212 174.232 80.0049 174.632 78.6967V67.9769H179.828V86.8728H174.632V83.3843C174.268 84.3655 172.233 87.1635 168.6 87.1635V87.1635ZM194.836 67.6862C198.433 67.6862 201.994 70.0482 201.994 76.0077V86.8728H196.798V76.3711C196.798 73.2823 195.599 72.2285 193.6 72.2285C190.839 72.2285 189.203 74.8449 188.804 76.153V86.8728H183.607V67.9769H188.804V71.4654C189.167 70.4843 191.202 67.6862 194.836 67.6862V67.6862ZM218.71 86.8728L212.205 79.3145L210.716 80.877V86.8728H205.519V80.1502V61.1817H210.716V74.5178L216.784 67.9769H222.998L215.403 75.935L224.706 86.8728H218.71ZM236.625 67.6499C240.913 67.6499 246.509 70.884 246.509 77.4976C246.509 84.1111 240.913 87.2362 236.625 87.2362C232.337 87.2362 226.704 84.1111 226.704 77.4976C226.704 70.884 232.337 67.6499 236.625 67.6499ZM236.625 72.2648C234.263 72.2648 231.755 74.0454 231.755 77.4976C231.755 80.8407 234.263 82.6212 236.625 82.6212C238.95 82.6212 241.494 80.8407 241.494 77.4976C241.494 74.0454 238.95 72.2648 236.625 72.2648ZM258.282 61C262.752 61 265.586 63.798 266.931 66.269L263.006 68.5947C261.625 66.6688 260.281 65.6876 258.282 65.6876C256.502 65.6876 255.194 66.7414 255.194 68.195C255.194 69.6485 256.029 70.4116 258.028 71.1384L259.772 71.7561C265.405 73.7547 267.621 76.2621 267.621 79.7505C267.621 84.8742 262.752 87.4179 258.428 87.4179C253.849 87.4179 250.288 84.6925 249.052 81.1314L253.122 78.9874C254.031 80.8407 255.557 82.6212 258.428 82.6212C260.499 82.6212 262.098 81.7128 262.098 79.8232C262.098 78.0063 261.008 77.2068 258.246 76.153L256.683 75.608C252.941 74.2634 249.925 72.4102 249.925 67.9769C249.925 63.9071 253.74 61 258.282 61V61ZM279.395 82.5122C280.376 82.5122 281.103 82.4032 281.902 82.1125V86.4731C281.103 86.8365 279.867 87.0908 278.05 87.0908C275.107 87.0908 272.636 86.0734 272.636 80.7317V72.2648H269.983V67.9769H272.636V63.5437H277.832V67.9769H281.866V72.2648H277.832V80.6953C277.832 81.5674 278.087 82.5122 279.395 82.5122V82.5122ZM294.33 67.6499C298.618 67.6499 304.214 70.884 304.214 77.4976C304.214 84.1111 298.618 87.2362 294.33 87.2362C290.042 87.2362 284.409 84.1111 284.409 77.4976C284.409 70.884 290.042 67.6499 294.33 67.6499ZM294.33 72.2648C291.968 72.2648 289.461 74.0454 289.461 77.4976C289.461 80.8407 291.968 82.6212 294.33 82.6212C296.655 82.6212 299.199 80.8407 299.199 77.4976C299.199 74.0454 296.655 72.2648 294.33 72.2648ZM319.112 67.6862C319.585 67.6862 320.021 67.6862 320.493 67.7952V72.7736C320.057 72.6646 319.621 72.6646 319.258 72.6646C315.769 72.6646 312.899 75.1719 312.572 78.8057V86.8728H307.375V67.9769H312.572V72.7009C313.407 69.8302 315.697 67.6862 319.112 67.6862V67.6862ZM332.776 67.6499C337.064 67.6499 342.987 70.884 341.86 79.2418H328.124C328.778 81.6038 330.741 82.8393 333.284 82.8393C335.646 82.8393 336.555 82.2942 337.899 81.5674L340.77 84.3655C339.135 86.0734 336.809 87.2362 333.103 87.2362C328.379 87.2362 322.855 84.0021 322.855 77.4976C322.855 70.884 328.488 67.6499 332.776 67.6499V67.6499ZM332.776 72.0832C330.886 72.0832 328.887 73.246 328.197 75.5716H337.282C336.7 73.246 334.629 72.0832 332.776 72.0832Z" fill="#1C110A"/>
<rect x="2.5" y="2.5" width="350" height="142" stroke="#1C110A" stroke-width="5"/>
</svg>
